#!OML:ASF X:\für Bonn\!DataBase\2005_08_10_Bjorn_Final\c3d\bjorn.ASF
:FULLY-SPECIFIED
:DEGREES
275
root -1.00115 20.6473 5.43717 -538.346 34.4242 -534.448
lowerback -2.59483 6.10824 6.79516
upperback 2.16098 7.98974 -2.0859
thorax 4.94101 4.24385 -5.32542
lowerneck -1.71706 2.075 12.0475
upperneck 11.6138 3.26263 -6.77581
head 4.04456 1.96174 -3.91512
rclavicle -1.33385e-013 -1.03368e-014
rhumerus 87.3285 16.0038 -81.3955
rradius 34.5919
rwrist 32.869
rhand -36.4406 16.6326
rfingers 7.12502
rthumb -9.53493 -13.1317
lclavicle -1.33385e-013 -1.03368e-014
lhumerus 55.9037 -18.2388 85.8874
lradius 66.4123
lwrist 53.5692
lhand -54.228 -2.24161
lfingers 7.12502
lthumb -26.6415 25.9038
rfemur 365.476 -2.36133 -350.157
rtibia 30.6115
rfoot 0.898775 11.476
rtoes -15.7471
lfemur -21.1099 2.2148 -8.48271
ltibia 37.7428
lfoot 3.7101 2.38856
ltoes -27.1181
276
root -1.01589 20.4397 5.3433 -538.227 34.325 -534.409
lowerback -2.55732 6.14813 6.93952
upperback 2.26319 8.04192 -2.08761
thorax 5.05731 4.28254 -5.39743
lowerneck -1.62268 2.02006 12.0615
upperneck 11.4852 3.19842 -6.85037
head 3.9845 1.92493 -3.94449
rclavicle -2.21645e-014 -1.98785e-014
rhumerus 87.5006 15.7514 -80.8453
rradius 35.4883
rwrist 32.3785
rhand -36.4839 16.5596
rfingers 7.12502
rthumb -9.57673 -13.2028
lclavicle -2.21645e-014 -1.98785e-014
lhumerus 56.3006 -18.3028 85.533
lradius 66.8443
lwrist 53.2389
lhand -54.3978 -1.22942
lfingers 7.12502
lthumb -26.804 26.8912
rfemur 365.561 -2.46359 -350.325
rtibia 30.151
rfoot 0.137114 11.7591
rtoes -18.2708
lfemur -21.7718 2.12288 -8.43556
ltibia 38.3582
lfoot 3.5331 2.71627
ltoes -26.0537
277
root -1.03135 20.2207 5.25123 -538.283 34.224 -534.549
lowerback -2.46845 6.16342 6.91443
upperback 2.40427 8.07302 -2.08235
thorax 5.15646 4.30662 -5.37535
lowerneck -1.52675 1.98109 11.9393
upperneck 11.3746 3.15833 -6.86313
head 3.9289 1.89803 -3.93095
rclavicle -2.83765e-014 -1.90833e-014
rhumerus 87.6973 15.5304 -80.2178
rradius 36.3814
rwrist 31.8751
rhand -36.5364 16.5692
rfingers 7.12502
rthumb -9.62738 -13.1908
lclavicle -2.83765e-014 -1.90833e-014
lhumerus 56.7453 -18.2926 85.1851
lradius 67.2326
lwrist 52.9798
lhand -54.3578 -0.404194
lfingers 7.12502
lthumb -26.7657 27.7223
rfemur 365.69 -2.52374 -350.661
rtibia 29.7953
rfoot -0.751234 12.0728
rtoes -21.7322
lfemur -22.3482 2.02259 -8.54352
ltibia 39.0997
lfoot 2.98665 2.93213
ltoes -25.2245
278
root -1.04896 19.9917 5.16054 -538.451 34.1614 -534.789
lowerback -2.33082 6.18431 6.82969
upperback 2.57627 8.12037 -2.09735
thorax 5.25741 4.33926 -5.34351
lowerneck -1.42982 1.94299 11.7981
upperneck 11.2445 3.11568 -6.85216
head 3.86659 1.86939 -3.90687
rclavicle -7.66812e-014 3.18055e-015
rhumerus 87.9168 15.2952 -79.5728
rradius 37.2562
rwrist 31.4115
rhand -36.6004 16.619
rfingers 7.12502
rthumb -9.68913 -13.1381
lclavicle -7.66812e-014 3.18055e-015
lhumerus 57.2268 -18.2807 84.7909
lradius 67.6225
lwrist 52.8345
lhand -54.0349 0.0637899
lfingers 7.12502
lthumb -26.4567 28.2371
rfemur 365.863 -2.49122 -351.102
rtibia 29.5293
rfoot -1.73981 12.3543
rtoes -25.1278
lfemur -22.8725 1.95724 -8.7555
ltibia 40.0089
lfoot 2.26878 2.95442
ltoes -23.9723
279
root -1.06819 19.7569 5.07197 -538.757 34.1316 -535.129
lowerback -2.11889 6.21194 6.70225
upperback 2.78726 8.18838 -2.15027
thorax 5.36007 4.3845 -5.33159
lowerneck -1.34916 1.90476 11.7149
upperneck 11.1092 3.06862 -6.86139
head 3.80638 1.83936 -3.8986
rclavicle -3.96575e-014 3.26007e-014
rhumerus 88.1144 15.0353 -78.9954
rradius 38.1405
rwrist 31.1097
rhand -36.7077 16.6606
rfingers 7.12502
rthumb -9.79267 -13.0917
lclavicle -3.96575e-014 3.26007e-014
lhumerus 57.7468 -18.3087 84.3132
lradius 68.0439
lwrist 52.8138
lhand -53.549 0.189032
lfingers 7.12502
lthumb -25.9915 28.4315
rfemur 366.182 -2.20703 -351.608
rtibia 29.2661
rfoot -2.8189 12.5173
rtoes -27.383
lfemur -23.3323 1.84234 -9.08125
ltibia 41.1568
lfoot 1.17035 2.7017
ltoes -23.4786
